<svg width="52" height="11" viewBox="0 0 52 11" fill="none" xmlns="http://www.w3.org/2000/svg">
<path d="M6.54155 3C6.27166 1.50852 5.07848 0.627841 3.61541 0.627841C1.75462 0.627841 0.405185 2.0625 0.405185 4.36364C0.405185 6.66477 1.75462 8.09943 3.61541 8.09943C5.07848 8.09943 6.27166 7.21875 6.54155 5.72727H5.66087C5.4478 6.7358 4.58132 7.27557 3.61541 7.27557C2.29439 7.27557 1.25746 6.25284 1.25746 4.36364C1.25746 2.47443 2.29439 1.4517 3.61541 1.4517C4.58132 1.4517 5.4478 1.99148 5.66087 3H6.54155ZM10.0669 8.11364C11.5442 8.11364 12.5385 6.99148 12.5385 5.30114C12.5385 3.59659 11.5442 2.47443 10.0669 2.47443C8.58967 2.47443 7.59535 3.59659 7.59535 5.30114C7.59535 6.99148 8.58967 8.11364 10.0669 8.11364ZM10.0669 7.3608C8.94478 7.3608 8.43342 6.39489 8.43342 5.30114C8.43342 4.20739 8.94478 3.22727 10.0669 3.22727C11.1891 3.22727 11.7005 4.20739 11.7005 5.30114C11.7005 6.39489 11.1891 7.3608 10.0669 7.3608ZM14.2182 2.54545H13.2523L14.9853 5.27273L13.2523 8H14.2182L15.525 5.88352L16.8319 8H17.7978L16.0364 5.27273L17.7978 2.54545H16.8319L15.525 4.77557L14.2182 2.54545ZM18.9936 10.0455H19.8317V7.16193H19.9027C20.0874 7.46023 20.4425 8.11364 21.4936 8.11364C22.8572 8.11364 23.8089 7.01989 23.8089 5.28693C23.8089 3.56818 22.8572 2.47443 21.4794 2.47443C20.4141 2.47443 20.0874 3.12784 19.9027 3.41193H19.8033V2.54545H18.9936V10.0455ZM19.8175 5.27273C19.8175 4.05114 20.3572 3.22727 21.38 3.22727C22.4453 3.22727 22.9709 4.12216 22.9709 5.27273C22.9709 6.4375 22.4311 7.3608 21.38 7.3608C20.3714 7.3608 19.8175 6.50852 19.8175 5.27273ZM26.6925 8.12784C27.6442 8.12784 28.1413 7.61648 28.3118 7.26136H28.3544V8H29.1925V4.40625C29.1925 2.6733 27.8714 2.47443 27.1754 2.47443C26.3516 2.47443 25.4141 2.75852 24.9879 3.75284L25.7834 4.03693C25.968 3.6392 26.4048 3.21307 27.2038 3.21307C27.9744 3.21307 28.3544 3.62145 28.3544 4.32102V4.34943C28.3544 4.75426 27.9425 4.71875 26.9482 4.84659C25.9361 4.97798 24.8317 5.2017 24.8317 6.4517C24.8317 7.51705 25.6555 8.12784 26.6925 8.12784ZM26.8203 7.375C26.1527 7.375 25.6697 7.0767 25.6697 6.49432C25.6697 5.85511 26.2521 5.65625 26.9055 5.57102C27.2607 5.52841 28.2124 5.42898 28.3544 5.25852V6.02557C28.3544 6.70739 27.8146 7.375 26.8203 7.375ZM31.5602 2.54545H30.7221V8H31.5602V5.67045H34.1738V8H35.0119V2.54545H34.1738V4.8892H31.5602V2.54545ZM37.3805 6.7642V2.54545H36.5424V8H37.5225L40.1362 3.78125V8H40.9743V2.54545H40.0083L37.3805 6.7642ZM41.767 3.3267H43.571V8H44.4091V3.3267H46.1989V2.54545H41.767V3.3267ZM48.2594 4.51989V2.54545H47.4213V8H49.7083C50.9867 8 51.6827 7.21875 51.6827 6.23864C51.6827 5.24432 50.9867 4.51989 49.7083 4.51989H48.2594ZM48.2594 5.30114H49.7083C50.3723 5.30114 50.8446 5.70597 50.8446 6.28125C50.8446 6.83168 50.3723 7.21875 49.7083 7.21875H48.2594V5.30114Z" fill="white"/>
</svg>
